# xmcd
#
# Track frame offsets: 
#        150
#        18335
#        27841
#        41831
#        55467
#        65567
#        79313
#        93215
#        102729
#        116149
#        131211
#        145118
#        156733
#        174198
#
# Disc length: 2383 seconds
#
# Revision: 0
# Processed by: cddbd v1.5.2PL0 Copyright (c) Steve Scherf et al.
# Submitted via: ExactAudioCopy v1.3
#
DISCID=cb094d0e
DTITLE=Delbert McClinton - Tall, Dark, and Handsome
DYEAR=2019
DGENRE=Blues
TTITLE0=Mr. Smith
TTITLE1=If I Hock My Guitar
TTITLE2=No Chicken on the Bone
TTITLE3=Let's Get Down like We Used To
TTITLE4=Gone to Mexico
TTITLE5=Lulu
TTITLE6=Loud Mouth
TTITLE7=Down in the Mouth
TTITLE8=Ruby and Jules
TTITLE9=Any Other Way
TTITLE10=A Fool like Me
TTITLE11=Can't Get Up
TTITLE12=Temporarily Insane
TTITLE13=A Poem
EXTD=
EXTT0=
EXTT1=
EXTT2=
EXTT3=
EXTT4=
EXTT5=
EXTT6=
EXTT7=
EXTT8=
EXTT9=
EXTT10=
EXTT11=
EXTT12=
EXTT13=
PLAYORDER=
